<mxfile host="Electron" agent="Mozilla/5.0 (Macintosh; Intel Mac OS X 10_15_7) AppleWebKit/537.36 (KHTML, like Gecko) draw.io/26.1.1 Chrome/132.0.6834.210 Electron/34.3.3 Safari/537.36" version="26.1.1">
  <diagram name="Pagina-1" id="yGAd2r3FU9P-NcZCL0-w">
    <mxGraphModel dx="1114" dy="769" grid="1" gridSize="10" guides="1" tooltips="1" connect="1" arrows="1" fold="1" page="1" pageScale="1" pageWidth="827" pageHeight="1169" math="0" shadow="0">
      <root>
        <mxCell id="0" />
        <mxCell id="1" parent="0" />
        <mxCell id="ioOOGiPEbpp3AXQF3N7d-29" value="" style="rounded=0;whiteSpace=wrap;html=1;dashed=1;fillColor=none;" parent="1" vertex="1">
          <mxGeometry x="550" y="290" width="190" height="180" as="geometry" />
        </mxCell>
        <mxCell id="ioOOGiPEbpp3AXQF3N7d-25" value="" style="rounded=0;whiteSpace=wrap;html=1;dashed=1;fillColor=none;" parent="1" vertex="1">
          <mxGeometry x="170" y="290" width="200" height="210" as="geometry" />
        </mxCell>
        <mxCell id="ioOOGiPEbpp3AXQF3N7d-2" value="&lt;span data-stringify-type=&quot;bold&quot; style=&quot;box-sizing: inherit; color: rgb(29, 28, 29); font-family: Slack-Lato, Slack-Fractions, appleLogo, sans-serif; font-variant-ligatures: common-ligatures; text-align: left;&quot;&gt;api-rtp.uat.cstar.pagopa.it&lt;/span&gt;" style="rounded=0;whiteSpace=wrap;html=1;fontStyle=0;fillColor=#d5e8d4;strokeColor=none;labelBackgroundColor=none;fontSize=12;" parent="1" vertex="1">
          <mxGeometry x="180" y="330" width="180" height="20" as="geometry" />
        </mxCell>
        <mxCell id="ioOOGiPEbpp3AXQF3N7d-3" value="&lt;span data-stringify-type=&quot;bold&quot; style=&quot;box-sizing: inherit; color: rgb(29, 28, 29); font-family: Slack-Lato, Slack-Fractions, appleLogo, sans-serif; font-variant-ligatures: common-ligatures; text-align: left;&quot;&gt;api-rtp-cb.uat.cstar.pagopa.it&lt;/span&gt;" style="rounded=0;whiteSpace=wrap;html=1;fontStyle=0;labelPosition=center;verticalLabelPosition=middle;align=center;verticalAlign=middle;fillColor=#f8cecc;strokeColor=none;labelBackgroundColor=none;fontSize=12;" parent="1" vertex="1">
          <mxGeometry x="180" y="370" width="180" height="20" as="geometry" />
        </mxCell>
        <mxCell id="ioOOGiPEbpp3AXQF3N7d-7" value="Debtor Service Provider" style="rounded=0;whiteSpace=wrap;html=1;fillColor=#dae8fc;strokeColor=none;" parent="1" vertex="1">
          <mxGeometry x="990" y="520" width="100" height="60" as="geometry" />
        </mxCell>
        <mxCell id="ioOOGiPEbpp3AXQF3N7d-9" value="callback" style="endArrow=open;html=1;rounded=0;exitX=0;exitY=0.5;exitDx=0;exitDy=0;fillColor=#f8cecc;strokeColor=#b85450;endFill=0;jumpStyle=arc;flowAnimation=0;entryX=0;entryY=0.5;entryDx=0;entryDy=0;edgeStyle=orthogonalEdgeStyle;strokeWidth=2;" parent="1" source="ioOOGiPEbpp3AXQF3N7d-7" target="ioOOGiPEbpp3AXQF3N7d-3" edge="1">
          <mxGeometry width="50" height="50" relative="1" as="geometry">
            <mxPoint x="510" y="329" as="sourcePoint" />
            <mxPoint x="80" y="550" as="targetPoint" />
            <Array as="points">
              <mxPoint x="80" y="550" />
              <mxPoint x="80" y="380" />
            </Array>
          </mxGeometry>
        </mxCell>
        <mxCell id="ioOOGiPEbpp3AXQF3N7d-11" value="" style="endArrow=open;html=1;rounded=0;exitX=1;exitY=0.5;exitDx=0;exitDy=0;entryX=0;entryY=0.25;entryDx=0;entryDy=0;fillColor=#d5e8d4;strokeColor=#82b366;endFill=0;jumpStyle=arc;flowAnimation=0;edgeStyle=orthogonalEdgeStyle;strokeWidth=2;" parent="1" source="ioOOGiPEbpp3AXQF3N7d-2" target="ioOOGiPEbpp3AXQF3N7d-18" edge="1">
          <mxGeometry width="50" height="50" relative="1" as="geometry">
            <mxPoint x="660" y="449" as="sourcePoint" />
            <mxPoint x="760" y="270" as="targetPoint" />
          </mxGeometry>
        </mxCell>
        <mxCell id="ioOOGiPEbpp3AXQF3N7d-14" value="QWAC" style="shape=card;whiteSpace=wrap;html=1;fillColor=#ffe6cc;strokeColor=#d79b00;fontSize=10;size=20;" parent="1" vertex="1">
          <mxGeometry x="660" y="390" width="40" height="40" as="geometry" />
        </mxCell>
        <mxCell id="ioOOGiPEbpp3AXQF3N7d-15" value="CA&lt;div&gt;QWAC&lt;/div&gt;" style="shape=cylinder3;whiteSpace=wrap;html=1;boundedLbl=1;backgroundOutline=1;size=5.333333333333314;fillColor=#e1d5e7;strokeColor=#9673a6;fontSize=12;" parent="1" vertex="1">
          <mxGeometry x="250" y="410" width="40" height="40" as="geometry" />
        </mxCell>
        <mxCell id="ioOOGiPEbpp3AXQF3N7d-18" value="cstar-u-apim" style="shape=image;verticalLabelPosition=bottom;labelBackgroundColor=default;verticalAlign=top;aspect=fixed;imageAspect=0;editableCssRules=.*;image=data:image/svg+xml,PHN2ZyB4bWxucz0iaHR0cDovL3d3dy53My5vcmcvMjAwMC9zdmciIHZpZXdCb3g9IjAuNSAxLjE3ODkyNzMwMjM2MDUzNDcgMTcgMTUuNjU2MDczNTcwMjUxNDY1IiBoZWlnaHQ9IjE1LjY1NjA3MzU3MDI1MTQ2NSIgd2lkdGg9IjE3IiBpZD0iZjc4ZWYzN2ItZmRlNC00NjFjLTk0ZTItZGNjZmYzMmRkNWQ3Ij48ZGVmcz48bGluZWFyR3JhZGllbnQgZ3JhZGllbnRVbml0cz0idXNlclNwYWNlT25Vc2UiIHkyPSIxLjE4IiB4Mj0iOSIgeTE9IjE2LjgyIiB4MT0iOSIgaWQ9ImJmOGE5NTgzLWFhZTktNDhmZi04N2Q4LWZiOGY0NGU3ZDZiZCI+PHN0b3Agc3RvcC1jb2xvcj0iIzE5OGFiMyIgb2Zmc2V0PSIwIi8+PHN0b3Agc3RvcC1jb2xvcj0iIzFmOWRjNCIgb2Zmc2V0PSIwLjA5Ii8+PHN0b3Agc3RvcC1jb2xvcj0iIzI4YjVkOSIgb2Zmc2V0PSIwLjI0Ii8+PHN0b3Agc3RvcC1jb2xvcj0iIzJkYzZlOSIgb2Zmc2V0PSIwLjQiLz48c3RvcCBzdG9wLWNvbG9yPSIjMzFkMWYyIiBvZmZzZXQ9IjAuNTciLz48c3RvcCBzdG9wLWNvbG9yPSIjMzJkNGY1IiBvZmZzZXQ9IjAuNzgiLz48L2xpbmVhckdyYWRpZW50PjxsaW5lYXJHcmFkaWVudCBncmFkaWVudFVuaXRzPSJ1c2VyU3BhY2VPblVzZSIgeTI9IjE0LjQ2IiB4Mj0iOC4zNiIgeTE9IjExLjM1IiB4MT0iOC4zNiIgaWQ9ImY5YjFiYjhjLTcyOGUtNGFiZi1iY2U1LTZjMTFhYzE3MGM1YiI+PHN0b3Agc3RvcC1jb2xvcj0iI2M2OWFlYiIgb2Zmc2V0PSIwIi8+PHN0b3Agc3RvcC1jb2xvcj0iIzZmNGJiMiIgb2Zmc2V0PSIxIi8+PC9saW5lYXJHcmFkaWVudD48L2RlZnM+PHRpdGxlPkljb24td2ViLTQyPC90aXRsZT48cGF0aCBmaWxsPSJ1cmwoI2JmOGE5NTgzLWFhZTktNDhmZi04N2Q4LWZiOGY0NGU3ZDZiZCkiIGQ9Ik0xNC4xOCw1Ljg5QTQuODUsNC44NSwwLDAsMCw5LjIzLDEuMTgsNSw1LDAsMCwwLDQuNDgsNC40Nyw0LjYxLDQuNjEsMCwwLDAsLjUsOSw0LjY3LDQuNjcsMCwwLDAsNS4yOSwxMy41YTMsMywwLDAsMCwuNDIsMGgxLjJhMS40NywxLjQ3LDAsMCwxLS4xMS0uNTZ2MEExLjUxLDEuNTEsMCwwLDEsNywxMi4yMUg1LjZsLS4zMSwwQTMuNDEsMy40MSwwLDAsMSwxLjc3LDksMy4zMywzLjMzLDAsMCwxLDQuNjgsNS43M2wuNzYtLjEyLjI1LS43M0EzLjczLDMuNzMsMCwwLDEsOS4yMywyLjQ1LDMuNiwzLjYsMCwwLDEsMTIuOTEsNS45VjdMMTQsNy4xNWEyLjU5LDIuNTksMCwwLDEsMi4yNiwyLjQ5LDIuNjMsMi42MywwLDAsMS0yLjYyLDIuNTRoLS4xNWwtLjA4LDBoLTFBMy45MiwzLjkyLDAsMCwwLDguNTQsOWEuNjQuNjQsMCwxLDAsMCwxLjI3LDIuNjUsMi42NSwwLDAsMSwwLDUuMjkuNjQuNjQsMCwxLDAsMCwxLjI3LDMuOTIsMy45MiwwLDAsMCwzLjg3LTMuMzRoMS4wNWEuNjQuNjQsMCwwLDAsLjIsMEEzLjkxLDMuOTEsMCwwLDAsMTcuNSw5LjY0LDMuODYsMy44NiwwLDAsMCwxNC4xOCw1Ljg5WiIvPjxyZWN0IGZpbGw9InVybCgjZjliMWJiOGMtNzI4ZS00YWJmLWJjZTUtNmMxMWFjMTcwYzViKSIgcng9IjEuNTQiIGhlaWdodD0iMy4xMiIgd2lkdGg9IjMuMTIiIHk9IjExLjM1IiB4PSI2LjgiLz48L3N2Zz4=;" parent="1" vertex="1">
          <mxGeometry x="440" y="330" width="42.5" height="40" as="geometry" />
        </mxCell>
        <mxCell id="ioOOGiPEbpp3AXQF3N7d-19" value="cstar-u-mcshared-mc-natgw" style="shape=image;verticalLabelPosition=middle;labelBackgroundColor=default;verticalAlign=middle;aspect=fixed;imageAspect=0;editableCssRules=.*;image=data:image/svg+xml,PHN2ZyB4bWxucz0iaHR0cDovL3d3dy53My5vcmcvMjAwMC9zdmciIHZpZXdCb3g9Ii0wLjExNzUxMjc0MDE5NDc5NzUyIC0wLjExNjcyNzE0MzUyNjA3NzI3IDE4LjIzMzQ1NTY1Nzk1ODk4NCAxOC4yMzM0NTU2NTc5NTg5ODQiIGhlaWdodD0iMTguMjMzNDU1NjU3OTU4OTg0IiB3aWR0aD0iMTguMjMzNDU1NjU3OTU4OTg0IiBpZD0iYjhhMzg2MTMtOTJkOS00MGJkLTk5MjAtMjBkZWE3ODczM2FiIj48ZGVmcz48bGluZWFyR3JhZGllbnQgZ3JhZGllbnRVbml0cz0idXNlclNwYWNlT25Vc2UiIGdyYWRpZW50VHJhbnNmb3JtPSJ0cmFuc2xhdGUoOSAtMy43MjgpIHJvdGF0ZSg0NSkiIHkyPSIxLjUwNiIgeDI9IjkiIHkxPSIxOC4xNyIgeDE9IjkiIGlkPSJiYjI3OGYxMS1hY2M1LTRmODEtYTk1Ni0zYzdlMjEwM2Y5ZTAiPjxzdG9wIHN0b3AtY29sb3I9IiMyMzhhYjAiIG9mZnNldD0iMCIvPjxzdG9wIHN0b3AtY29sb3I9IiMyZGE0YzgiIG9mZnNldD0iMC4xMDkiLz48c3RvcCBzdG9wLWNvbG9yPSIjM2VkM2YyIiBvZmZzZXQ9IjAuNzc1Ii8+PC9saW5lYXJHcmFkaWVudD48L2RlZnM+PGc+PHJlY3QgZmlsbD0idXJsKCNiYjI3OGYxMS1hY2M1LTRmODEtYTk1Ni0zYzdlMjEwM2Y5ZTApIiB0cmFuc2Zvcm09InRyYW5zbGF0ZSgtMy43MjggOSkgcm90YXRlKC00NSkiIHJ4PSIwLjU5MSIgaGVpZ2h0PSIxMi44OTMiIHdpZHRoPSIxMi44OTMiIHk9IjIuNTUzIiB4PSIyLjU1MyIvPjxwb2x5Z29uIGZpbGw9IiM5Y2ViZmYiIHBvaW50cz0iMTQuMDkyIDEwLjA2NyAxMy43MzQgOS43MDkgMTMuNzM0IDguMzMgMTAuODc3IDguMzMgMTAuODc3IDkuODUgMTIuMTU4IDkuODUgOC45NCAxMy4wNjkgNS43MjEgOS44NSA3LjAyMyA5Ljg1IDcuMDIzIDguMzMgMy44ODUgOC4zMyAzLjg4NSA5Ljg1IDQuMDA0IDkuODUgMy43ODggMTAuMDY3IDguMjg2IDE0LjU2NSA4Ljk0IDEzLjkxMiA5LjU5MyAxNC41NjUgMTQuMDkyIDEwLjA2NyIvPjxnPjxlbGxpcHNlIGZpbGw9IiNmZmYiIHRyYW5zZm9ybT0idHJhbnNsYXRlKC01LjI3MSA1LjQ5NCkgcm90YXRlKC00NS4xMjEpIiByeT0iMS41ODUiIHJ4PSIxLjU3NyIgY3k9IjkuMDkiIGN4PSIzLjk3NyIgaWQ9ImU3NDQ0Nzc5LTk3ZDQtNDFjMC1iNjE1LThmMjBkZmY3YjQzMCIvPjxlbGxpcHNlIGZpbGw9IiM4NmQ2MzMiIHRyYW5zZm9ybT0idHJhbnNsYXRlKC01LjI2NyA1LjQ4NCkgcm90YXRlKC00NS4wNjEpIiByeT0iMC45MDUiIHJ4PSIwLjg5NiIgY3k9IjkuMDkiIGN4PSIzLjk3NyIgaWQ9ImY0OWEzMDI3LTJhNzAtNDk1Ni04Mzc3LWI5ZmRlMDY5MjI2OCIvPjxlbGxpcHNlIGZpbGw9IiNmZmYiIHRyYW5zZm9ybT0idHJhbnNsYXRlKC0yLjMxNiAxMi42MDcpIHJvdGF0ZSgtNDUuMTIxKSIgcnk9IjEuNTg1IiByeD0iMS41NzciIGN5PSI5LjA5IiBjeD0iMTQuMDE0IiBpZD0iYTFhZmVlMzktNmJkOS00Nzk5LWE4NzYtYTU4N2QzMGQ2OGUyIi8+PGVsbGlwc2UgZmlsbD0iIzg2ZDYzMyIgdHJhbnNmb3JtPSJ0cmFuc2xhdGUoLTIuMzE5IDEyLjU5KSByb3RhdGUoLTQ1LjA2MSkiIHJ5PSIwLjkwNSIgcng9IjAuODk2IiBjeT0iOS4wOSIgY3g9IjE0LjAxNCIgaWQ9ImUzYmU0OTkyLTdjYjUtNDcyOS1hNzI3LWI2ZGYzODQ2YTI2MCIvPjwvZz48Zz48cGF0aCBmaWxsPSIjZmZmIiBkPSJNMTEuMDQsNC44MDZsLTItMmEuMTUuMTUsMCwwLDAtLjIxMywwbC0yLDJhLjE1LjE1LDAsMCwwLC4xMDYuMjU3SDguMDY4YS4xMDcuMTA3LDAsMCwxLC4xMDcuMTA3VjE1LjQzM0g5LjdWNS4xN0EuMTA3LjEwNywwLDAsMSw5LjgsNS4wNjNoMS4xMzFBLjE1LjE1LDAsMCwwLDExLjA0LDQuODA2WiIvPjxlbGxpcHNlIGZpbGw9IiNmZmYiIHRyYW5zZm9ybT0idHJhbnNsYXRlKC03LjM4OCAxMC40OTQpIHJvdGF0ZSgtNDUuMTIxKSIgcnk9IjEuNTg1IiByeD0iMS41NzciIGN5PSIxNC4xMzkiIGN4PSI4LjkzNSIgaWQ9ImIzOWE0ZGExLTgzYjItNDAyMi05MjA2LWRjMDE3ODVjZjQyOCIvPjxlbGxpcHNlIGZpbGw9IiM4NmQ2MzMiIHRyYW5zZm9ybT0idHJhbnNsYXRlKC03LjM4NCAxMC40NzcpIHJvdGF0ZSgtNDUuMDYxKSIgcnk9IjAuOTA1IiByeD0iMC44OTYiIGN5PSIxNC4xMzkiIGN4PSI4LjkzNSIgaWQ9ImZjODAyM2I4LTIwMmQtNDI5Mi04YmEwLWYxZGIwNjBhMzZlZiIvPjwvZz48L2c+PC9zdmc+;labelPosition=right;align=left;spacingTop=10;" parent="1" vertex="1">
          <mxGeometry x="800" y="330" width="40" height="40" as="geometry" />
        </mxCell>
        <mxCell id="ioOOGiPEbpp3AXQF3N7d-20" value="cstar-u-appgateway-maz-pip&#xa;20.31.11.237" style="shape=image;verticalLabelPosition=middle;labelBackgroundColor=default;verticalAlign=middle;aspect=fixed;imageAspect=0;editableCssRules=.*;image=data:image/svg+xml,PHN2ZyB4bWxucz0iaHR0cDovL3d3dy53My5vcmcvMjAwMC9zdmciIHZpZXdCb3g9IjAuNSAyLjE3MDAwMDA3NjI5Mzk0NTMgMTcgMTMuNjY5OTk5MTIyNjE5NjI5IiBoZWlnaHQ9IjEzLjY2OTk5OTEyMjYxOTYyOSIgd2lkdGg9IjE3IiBpZD0iYjkwZjc0ODUtZWRiOC00OWNjLTkxMTgtYmMwNTRjZjVjMThlIj48ZGVmcz48bGluZWFyR3JhZGllbnQgZ3JhZGllbnRVbml0cz0idXNlclNwYWNlT25Vc2UiIHkyPSI1Ljc5IiB4Mj0iOSIgeTE9IjE1LjgzIiB4MT0iOSIgaWQ9ImFkNTJlMzFlLTc1ZGUtNDZhZi05YmRjLWJlYTAzOGFiNDIwOSI+PHN0b3Agc3RvcC1jb2xvcj0iIzMyYmVkZCIgb2Zmc2V0PSIwIi8+PHN0b3Agc3RvcC1jb2xvcj0iIzMyY2FlYSIgb2Zmc2V0PSIwLjE4Ii8+PHN0b3Agc3RvcC1jb2xvcj0iIzMyZDJmMiIgb2Zmc2V0PSIwLjQxIi8+PHN0b3Agc3RvcC1jb2xvcj0iIzMyZDRmNSIgb2Zmc2V0PSIwLjc4Ii8+PC9saW5lYXJHcmFkaWVudD48L2RlZnM+PHRpdGxlPkljb24tbmV0d29ya2luZy02OTwvdGl0bGU+PHBhdGggZmlsbD0idXJsKCNhZDUyZTMxZS03NWRlLTQ2YWYtOWJkYy1iZWEwMzhhYjQyMDkpIiBkPSJNLjUsNS43OWgxN2EwLDAsMCwwLDEsMCwwdjkuNDhhLjU3LjU3LDAsMCwxLS41Ny41N0gxLjA3YS41Ny41NywwLDAsMS0uNTctLjU3VjUuNzlBMCwwLDAsMCwxLC41LDUuNzlaIi8+PHBhdGggZmlsbD0iIzc2NzY3NiIgZD0iTTEuMDcsMi4xN0gxNi45M2EuNTcuNTcsMCwwLDEsLjU3LjU3VjUuNzlhMCwwLDAsMCwxLDAsMEguNWEwLDAsMCwwLDEsMCwwVjIuNzNBLjU3LjU3LDAsMCwxLDEuMDcsMi4xN1oiLz48Y2lyY2xlIGZpbGw9IiNmMmYyZjIiIHI9IjEuMzgiIGN5PSIxMC4xOSIgY3g9IjEyLjgyIi8+PGNpcmNsZSBmaWxsPSIjZjJmMmYyIiByPSIxLjM4IiBjeT0iMTAuMTkiIGN4PSI5LjA2Ii8+PGNpcmNsZSBmaWxsPSIjZjJmMmYyIiByPSIxLjM4IiBjeT0iMTAuMTkiIGN4PSI1LjE4Ii8+PHJlY3QgZmlsbD0iI2YyZjJmMiIgcng9IjAuMjgiIGhlaWdodD0iMS40NiIgd2lkdGg9IjEyLjQzIiB5PSIzLjI1IiB4PSIyLjc5Ii8+PC9zdmc+;spacingTop=0;labelPosition=right;align=left;" parent="1" vertex="1">
          <mxGeometry x="180" y="470" width="24.28" height="20" as="geometry" />
        </mxCell>
        <mxCell id="ioOOGiPEbpp3AXQF3N7d-21" value="cstar-u-app-gw-maz" style="shape=image;verticalLabelPosition=middle;labelBackgroundColor=default;verticalAlign=middle;aspect=fixed;imageAspect=0;editableCssRules=.*;image=data:image/svg+xml,PHN2ZyB4bWxucz0iaHR0cDovL3d3dy53My5vcmcvMjAwMC9zdmciIHZpZXdCb3g9IjAuMjU4MDgyMTIxNjEwNjQxNSAwLjI2NzIzMTEzNjU2MDQ0MDA2IDE3LjQ2NTUzODAyNDkwMjM0NCAxNy40NjU1MzgwMjQ5MDIzNDQiIGhlaWdodD0iMTcuNDY1NTM4MDI0OTAyMzQ0IiB3aWR0aD0iMTcuNDY1NTM4MDI0OTAyMzQ0IiBpZD0iYWNhYzVhMzQtYTAzMi00OWY5LTkzOTctMzdmNGYxYjRhZTlhIj48ZGVmcz48bGluZWFyR3JhZGllbnQgZ3JhZGllbnRVbml0cz0idXNlclNwYWNlT25Vc2UiIGdyYWRpZW50VHJhbnNmb3JtPSJ0cmFuc2xhdGUoOSAtMy43Mykgcm90YXRlKDQ1KSIgeTI9Ii0wLjQ2IiB4Mj0iOSIgeTE9IjE5LjI1IiB4MT0iOSIgaWQ9ImY2ZDUzOTliLWE1Y2ItNGMwOS05NmNjLTllM2JiMWFmMjM4NiI+PHN0b3Agc3RvcC1jb2xvcj0iIzVlOTYyNCIgb2Zmc2V0PSIwIi8+PHN0b3Agc3RvcC1jb2xvcj0iIzZkYWQyYSIgb2Zmc2V0PSIwLjU1Ii8+PHN0b3Agc3RvcC1jb2xvcj0iIzc2YmMyZCIgb2Zmc2V0PSIxIi8+PC9saW5lYXJHcmFkaWVudD48bGluZWFyR3JhZGllbnQgZ3JhZGllbnRVbml0cz0idXNlclNwYWNlT25Vc2UiIHkyPSI1LjE4IiB4Mj0iNy41MyIgeTE9IjYuNDQiIHgxPSI3LjU0IiBpZD0iYTQzMjQyYTItNGQ5NS00ZjZkLTg4NzAtMjcwMmNlYjZhZWJjIj48c3RvcCBzdG9wLWNvbG9yPSIjY2NjIiBvZmZzZXQ9IjAiLz48c3RvcCBzdG9wLWNvbG9yPSIjZDdkN2Q3IiBvZmZzZXQ9IjAuMTIiLz48c3RvcCBzdG9wLWNvbG9yPSIjZWJlYmViIiBvZmZzZXQ9IjAuNDIiLz48c3RvcCBzdG9wLWNvbG9yPSIjZjhmOGY4IiBvZmZzZXQ9IjAuNzIiLz48c3RvcCBzdG9wLWNvbG9yPSIjZmNmY2ZjIiBvZmZzZXQ9IjEiLz48L2xpbmVhckdyYWRpZW50PjxsaW5lYXJHcmFkaWVudCBocmVmPSIjYTQzMjQyYTItNGQ5NS00ZjZkLTg4NzAtMjcwMmNlYjZhZWJjIiB5Mj0iNi41NyIgeDI9IjkuMzYiIHkxPSI3LjY5IiB4MT0iOS4zNiIgaWQ9ImVlZGNlNmRkLTcwNmEtNDNjNC1hYzY2LTY2YjczNTc4MjIxZCIvPjwvZGVmcz48cmVjdCBmaWxsPSJ1cmwoI2Y2ZDUzOTliLWE1Y2ItNGMwOS05NmNjLTllM2JiMWFmMjM4NikiIHRyYW5zZm9ybT0idHJhbnNsYXRlKC0zLjczIDkpIHJvdGF0ZSgtNDUpIiByeD0iMC41NyIgaGVpZ2h0PSIxMi4zNSIgd2lkdGg9IjEyLjM1IiB5PSIyLjgyIiB4PSIyLjgyIi8+PGc+PHBhdGggZmlsbD0iI2ZmZiIgZD0iTTEwLjg5LDEwLjUxaDIuODRhLjExLjExLDAsMCwwLC4xLS4xMVY3LjU3YS4xLjEsMCwwLDAtLjE4LS4wN2wtLjc4Ljc4LDAsLjA1YS4xLjEsMCwwLDEtLjE0LDBMOS4yNiw0LjkxYS4xLjEsMCwwLDAtLjE0LDBsLS44OC44OGEuMTEuMTEsMCwwLDAsMCwuMTVsMy40MSwzLjQxYS4xMS4xMSwwLDAsMSwwLC4xNWwtLjA1LjA1LS43OC43OEEuMTEuMTEsMCwwLDAsMTAuODksMTAuNTFaIi8+PHBhdGggZmlsbD0iI2ZmZiIgZD0iTTYuOTIsMTAuNTFINC4wOEEuMTEuMTEsMCwwLDEsNCwxMC40VjcuNTdhLjEuMSwwLDAsMSwuMTctLjA3bC43OS43OCwwLC4wNWEuMS4xLDAsMCwwLC4xNCwwTDguNTUsNC45MWEuMS4xLDAsMCwxLC4xNCwwbC44OC44OGEuMTEuMTEsMCwwLDEsMCwuMTVMNi4xNiw5LjM1YS4xMS4xMSwwLDAsMCwwLC4xNWwwLC4wNS43OC43OEEuMTEuMTEsMCwwLDEsNi45MiwxMC41MVoiLz48cGF0aCBmaWxsPSIjZmZmIiBkPSJNNi44MiwxMy4wN2wyLDJhLjEuMSwwLDAsMCwuMTQsMGwyLTJhLjEuMSwwLDAsMC0uMDctLjE3SDkuNzJhLjExLjExLDAsMCwxLS4xLS4xVjhhLjEuMSwwLDAsMC0uMS0uMTFIOC4yOEEuMTEuMTEsMCwwLDAsOC4xNyw4VjEyLjhhLjEuMSwwLDAsMS0uMS4xSDYuODlBLjEuMSwwLDAsMCw2LjgyLDEzLjA3WiIvPjwvZz48cGF0aCBmaWxsPSIjMDA3OGQ0IiBkPSJNMTAuNjUsNy43OEEyLjcxLDIuNzEsMCwwLDEsNy4zMywzLjVsMCwwYTIuNzEsMi43MSwwLDAsMSwzLjI5LDQuMyIgaWQ9ImFjMGE5YzBjLTJlOGMtNDg0My1iMDJiLTJmYWRmNzZiMjdkMCIvPjxjaXJjbGUgZmlsbD0idXJsKCNhNDMyNDJhMi00ZDk1LTRmNmQtODg3MC0yNzAyY2ViNmFlYmMpIiByPSIwLjg3IiBjeT0iNS41NSIgY3g9IjcuNTMiLz48Zz48cGF0aCBvcGFjaXR5PSIwLjU1IiBmaWxsPSIjZjJmMmYyIiBkPSJNNi42Nyw3bC4xOS4zTDcsNy41YTUuOTQsNS45NCwwLDAsMSwuMzQtMS4xLjg1Ljg1LDAsMCwxLS40NS0uMjNBNi43MSw2LjcxLDAsMCwwLDYuNjcsN1oiLz48cGF0aCBvcGFjaXR5PSIwLjU1IiBmaWxsPSIjZjJmMmYyIiBkPSJNNy4yNCw0LjczQTQsNCwwLDAsMSw3LDMuOGEyLjQ4LDIuNDgsMCwwLDAtLjM0LjQ2QTMuNTEsMy41MSwwLDAsMCw2Ljg2LDUsMSwxLDAsMCwxLDcuMjQsNC43M1oiLz48cGF0aCBvcGFjaXR5PSIwLjU1IiBmaWxsPSIjZjJmMmYyIiBkPSJNOC4xNyw2LjE0YS44Ny44NywwLDAsMS0uNDguMjYsNC42Miw0LjYyLDAsMCwwLC40Ni40MSw0LjE0LDQuMTQsMCwwLDAsLjY1LjM5VjcuMTNBLjUzLjUzLDAsMCwxLDksNi43MywzLjYsMy42LDAsMCwxLDguMTcsNi4xNFoiLz48cGF0aCBvcGFjaXR5PSIwLjU1IiBmaWxsPSIjZjJmMmYyIiBkPSJNMTAuNzksNy4yYTQuMTQsNC4xNCwwLDAsMS0uODctLjF2MGEuNTUuNTUsMCwwLDEtLjE2LjM5LDMuODQsMy44NCwwLDAsMCwxLjA4LjA4LDIuOTMsMi45MywwLDAsMCwuMzctLjQyWiIvPjwvZz48Y2lyY2xlIGZpbGw9InVybCgjZWVkY2U2ZGQtNzA2YS00M2M0LWFjNjYtNjZiNzM1NzgyMjFkKSIgcj0iMC41NiIgY3k9IjcuMTMiIGN4PSI5LjM2Ii8+PGNpcmNsZSBmaWxsPSIjZjJmMmYyIiByPSIwLjYiIGN5PSI1Ljc0IiBjeD0iMTAuNjQiLz48Zz48cGF0aCBvcGFjaXR5PSIwLjU1IiBmaWxsPSIjZjJmMmYyIiBkPSJNOS4yMSw0LjQyQTQuMjksNC4yOSwwLDAsMSwxMS4wOSw0YTIuMjQsMi4yNCwwLDAsMC0uNDctLjQ1LDQuNSw0LjUsMCwwLDAtMS40OS4zNWMtLjEsMC0uMTkuMTEtLjI5LjE2aDBhNS44NSw1Ljg1LDAsMCwxLS42My0uOTNsLS4zNC4xM2E1LjM1LDUuMzUsMCwwLDAsLjY1LDEsMy45MiwzLjkyLDAsMCwwLS42Ny41NS44Ny44NywwLDAsMSwuNDMuMzUsMy4yOSwzLjI5LDAsMCwxLC42MS0uNDgsOS4xNiw5LjE2LDAsMCwwLDEuMTcsMSwuNTcuNTcsMCwwLDEsLjItLjMyQTguNDQsOC40NCwwLDAsMSw5LjIxLDQuNDJaIi8+PHBhdGggb3BhY2l0eT0iMC41NSIgZmlsbD0iI2YyZjJmMiIgZD0iTTExLjU1LDYuMDloMGwtLjEsMGgwbC0uMDgsMGgwbC0uMS0uMDZhLjYxLjYxLDAsMCwxLS4yLjNsLjEyLjA3aDBsLjExLjA2aDBsLjI4LjE0aDBhMy41OCwzLjU4LDAsMCwwLC4wOS0uMzVaIi8+PC9nPjxjaXJjbGUgZmlsbD0iI2YyZjJmMiIgcj0iMC44NyIgY3k9IjUuNTUiIGN4PSI3LjUzIi8+PGNpcmNsZSBmaWxsPSIjZjJmMmYyIiByPSIwLjU2IiBjeT0iNy4xMyIgY3g9IjkuMzYiLz48L3N2Zz4=;labelPosition=right;align=left;" parent="1" vertex="1">
          <mxGeometry x="180" y="300" width="20" height="20" as="geometry" />
        </mxCell>
        <mxCell id="ioOOGiPEbpp3AXQF3N7d-22" value="cstar-u-mcshared-cae" style="shape=image;verticalLabelPosition=middle;labelBackgroundColor=default;verticalAlign=middle;aspect=fixed;imageAspect=0;editableCssRules=.*;image=data:image/svg+xml,PHN2ZyB4bWxucz0iaHR0cDovL3d3dy53My5vcmcvMjAwMC9zdmciIHZpZXdCb3g9IjAuNjM4OTk5OTk4NTY5NDg4NSAwLjYyNDAwMDAxMjg3NDYwMzMgMTYuODYxMDAwMDYxMDM1MTU2IDE2Ljg2MTAwMDA2MTAzNTE1NiIgaGVpZ2h0PSIxNi44NjEwMDAwNjEwMzUxNTYiIHdpZHRoPSIxNi44NjEwMDAwNjEwMzUxNTYiPjxkZWZzPjxsaW5lYXJHcmFkaWVudCBncmFkaWVudFVuaXRzPSJ1c2VyU3BhY2VPblVzZSIgeTI9IjEzLjA5OSIgeDI9IjExLjcyOSIgeTE9IjQuODgiIHgxPSIxMS43MjkiIGlkPSJhM2E0NDA5My1iMTU3LTQyNmUtYThmZS1jZWM5ZjljMjM5NzgiPjxzdG9wIHN0b3AtY29sb3I9IiM3NzNhZGMiIG9mZnNldD0iMC4wMDEiLz48c3RvcCBzdG9wLWNvbG9yPSIjNjYzNWJiIiBvZmZzZXQ9IjAuNTI4Ii8+PHN0b3Agc3RvcC1jb2xvcj0iIzU1MmY5OSIgb2Zmc2V0PSIxIi8+PC9saW5lYXJHcmFkaWVudD48bGluZWFyR3JhZGllbnQgZ3JhZGllbnRVbml0cz0idXNlclNwYWNlT25Vc2UiIHkyPSI0LjE5OCIgeDI9IjYuMzUiIHkxPSIxMy45MTQiIHgxPSI2LjM1IiBpZD0iYWQ4Mzg4NTktMDNmNC00NzJmLTgxYmMtZWJjOTIxZDcxMzM1Ij48c3RvcCBzdG9wLWNvbG9yPSIjNzczYWRjIiBvZmZzZXQ9IjAuMDAxIi8+PHN0b3Agc3RvcC1jb2xvcj0iIzc5M2RkZCIgb2Zmc2V0PSIwLjMwNyIvPjxzdG9wIHN0b3AtY29sb3I9IiM4MDQ2ZTEiIG9mZnNldD0iMC41MzIiLz48c3RvcCBzdG9wLWNvbG9yPSIjOGM1NmU3IiBvZmZzZXQ9IjAuNzMxIi8+PHN0b3Agc3RvcC1jb2xvcj0iIzljNmRlZiIgb2Zmc2V0PSIwLjkxNSIvPjxzdG9wIHN0b3AtY29sb3I9IiNhNjdhZjQiIG9mZnNldD0iMSIvPjwvbGluZWFyR3JhZGllbnQ+PC9kZWZzPjxnIGlkPSJhZTgyNDcwZC03YTZjLTRkZmUtODUzMy01OWQ4ZmY5NDg2MjkiPjxnPjxwYXRoIGZpbGw9IiM5NDk0OTQiIGQ9Ik04LjYxNyw4LjY0NEguNjM5VjEuNzg0QTEuMTYsMS4xNiwwLDAsMSwxLjc4OC42MjRIOC42MTdaTTEuNjMsNy42NTNoNlYxLjU5NEgxLjc4OGEuMTU4LjE1OCwwLDAsMC0uMTU4LjE1OGgwWiIvPjxwYXRoIGZpbGw9IiM5NDk0OTQiIGQ9Ik0xNy41LDguNjQ0SDkuNTIzVi42MjRoNi44MjhBMS4xNiwxLjE2LDAsMCwxLDE3LjUsMS43ODRabS02Ljk4Ny0uOTkxaDZWMS43ODRhLjE1Ny4xNTcsMCwwLDAtLjEyMy0uMTg3LjIuMiwwLDAsMC0uMDM1LDBIMTAuNTEzWiIvPjxwYXRoIGZpbGw9IiM5NDk0OTQiIGQ9Ik04LjYxNywxNy40ODVIMS43ODhBMS4xNDksMS4xNDksMCwwLDEsLjYzOSwxNi4zNDdWOS40NzZIOC42MTdaTTEuNjMsMTAuNDY3djUuODhhLjE1OC4xNTgsMCwwLDAsLjE1OC4xNThINy42MjZWMTAuNDY3WiIvPjxwYXRoIGZpbGw9IiM5NDk0OTQiIGQ9Ik0xNi4zNTEsMTcuNDg1SDkuNTIzVjkuNDc2SDE3LjV2Ni44NzFBMS4xNDksMS4xNDksMCwwLDEsMTYuMzUxLDE3LjQ4NVptLTUuODM4LS45OTFoNS44MzhhLjE1Ny4xNTcsMCwwLDAsLjE1OC0uMTU4VjEwLjQ2N2gtNloiLz48cGF0aCBmaWxsPSJ1cmwoI2EzYTQ0MDkzLWIxNTctNDI2ZS1hOGZlLWNlYzlmOWMyMzk3OCkiIGQ9Ik0xNC42LDYuMjk0YS4yOTQuMjk0LDAsMCwwLS4yLS4yNzhMOS4wNDQsNC4yMDVBLjEyOC4xMjgsMCwwLDAsOSw0LjJIOWEuMTMyLjEzMiwwLDAsMC0uMTMzLjEzM3Y5LjQ0NUEuMTMzLjEzMywwLDAsMCw5LDEzLjkxMUg5YS4xMzguMTM4LDAsMCwwLC4wNDktLjAxbDUuMzY1LTIuMTQ1YS4yOTIuMjkyLDAsMCwwLC4xODQtLjI3MloiLz48cGF0aCBmaWxsPSJ1cmwoI2FkODM4ODU5LTAzZjQtNDcyZi04MWJjLWViYzkyMWQ3MTMzNSkiIGQ9Ik04Ljk2Niw0LjJsLTUuMjkzLjk2NmEuMTYxLjE2MSwwLDAsMC0uMTMuMTU4VjEyLjYzYS4xNi4xNiwwLDAsMCwuMTI2LjE1N0w4Ljk2MiwxMy45MWEuMTYxLjE2MSwwLDAsMCwuMTkxLS4xMjEuMjIuMjIsMCwwLDAsMC0uMDM2VjQuMzU4QS4xNi4xNiwwLDAsMCw5LDQuMi4xNjMuMTYzLDAsMCwwLDguOTY2LDQuMloiLz48cGF0aCBvcGFjaXR5PSIwLjUiIGZpbGw9IiNiNzk2ZjkiIGQ9Ik02LjUyLDUuNjU2djYuOGwxLjg0Mi4zVjUuMzM1Wm0tMi4yNjIuMzY3djUuOTU1bDEuNi4zMjZWNS43NTRaIi8+PC9nPjwvZz48L3N2Zz4=;labelPosition=right;align=left;" parent="1" vertex="1">
          <mxGeometry x="560" y="300" width="20" height="20" as="geometry" />
        </mxCell>
        <mxCell id="ioOOGiPEbpp3AXQF3N7d-24" value="cstar-u-weu-mc-pip&#xa;9.163.49.89" style="shape=image;verticalLabelPosition=bottom;labelBackgroundColor=default;verticalAlign=top;aspect=fixed;imageAspect=0;editableCssRules=.*;image=data:image/svg+xml,PHN2ZyB4bWxucz0iaHR0cDovL3d3dy53My5vcmcvMjAwMC9zdmciIHZpZXdCb3g9IjAuNSAyLjE3MDAwMDA3NjI5Mzk0NTMgMTcgMTMuNjY5OTk5MTIyNjE5NjI5IiBoZWlnaHQ9IjEzLjY2OTk5OTEyMjYxOTYyOSIgd2lkdGg9IjE3IiBpZD0iYjkwZjc0ODUtZWRiOC00OWNjLTkxMTgtYmMwNTRjZjVjMThlIj48ZGVmcz48bGluZWFyR3JhZGllbnQgZ3JhZGllbnRVbml0cz0idXNlclNwYWNlT25Vc2UiIHkyPSI1Ljc5IiB4Mj0iOSIgeTE9IjE1LjgzIiB4MT0iOSIgaWQ9ImFkNTJlMzFlLTc1ZGUtNDZhZi05YmRjLWJlYTAzOGFiNDIwOSI+PHN0b3Agc3RvcC1jb2xvcj0iIzMyYmVkZCIgb2Zmc2V0PSIwIi8+PHN0b3Agc3RvcC1jb2xvcj0iIzMyY2FlYSIgb2Zmc2V0PSIwLjE4Ii8+PHN0b3Agc3RvcC1jb2xvcj0iIzMyZDJmMiIgb2Zmc2V0PSIwLjQxIi8+PHN0b3Agc3RvcC1jb2xvcj0iIzMyZDRmNSIgb2Zmc2V0PSIwLjc4Ii8+PC9saW5lYXJHcmFkaWVudD48L2RlZnM+PHRpdGxlPkljb24tbmV0d29ya2luZy02OTwvdGl0bGU+PHBhdGggZmlsbD0idXJsKCNhZDUyZTMxZS03NWRlLTQ2YWYtOWJkYy1iZWEwMzhhYjQyMDkpIiBkPSJNLjUsNS43OWgxN2EwLDAsMCwwLDEsMCwwdjkuNDhhLjU3LjU3LDAsMCwxLS41Ny41N0gxLjA3YS41Ny41NywwLDAsMS0uNTctLjU3VjUuNzlBMCwwLDAsMCwxLC41LDUuNzlaIi8+PHBhdGggZmlsbD0iIzc2NzY3NiIgZD0iTTEuMDcsMi4xN0gxNi45M2EuNTcuNTcsMCwwLDEsLjU3LjU3VjUuNzlhMCwwLDAsMCwxLDAsMEguNWEwLDAsMCwwLDEsMCwwVjIuNzNBLjU3LjU3LDAsMCwxLDEuMDcsMi4xN1oiLz48Y2lyY2xlIGZpbGw9IiNmMmYyZjIiIHI9IjEuMzgiIGN5PSIxMC4xOSIgY3g9IjEyLjgyIi8+PGNpcmNsZSBmaWxsPSIjZjJmMmYyIiByPSIxLjM4IiBjeT0iMTAuMTkiIGN4PSI5LjA2Ii8+PGNpcmNsZSBmaWxsPSIjZjJmMmYyIiByPSIxLjM4IiBjeT0iMTAuMTkiIGN4PSI1LjE4Ii8+PHJlY3QgZmlsbD0iI2YyZjJmMiIgcng9IjAuMjgiIGhlaWdodD0iMS40NiIgd2lkdGg9IjEyLjQzIiB5PSIzLjI1IiB4PSIyLjc5Ii8+PC9zdmc+;spacingTop=0;" parent="1" vertex="1">
          <mxGeometry x="807.86" y="400" width="24.28" height="20" as="geometry" />
        </mxCell>
        <mxCell id="ioOOGiPEbpp3AXQF3N7d-27" value="" style="endArrow=none;dashed=1;html=1;dashPattern=1 2;strokeWidth=1;rounded=0;" parent="1" source="ioOOGiPEbpp3AXQF3N7d-3" target="ioOOGiPEbpp3AXQF3N7d-15" edge="1">
          <mxGeometry width="50" height="50" relative="1" as="geometry">
            <mxPoint x="390" y="520" as="sourcePoint" />
            <mxPoint x="440" y="470" as="targetPoint" />
          </mxGeometry>
        </mxCell>
        <mxCell id="ioOOGiPEbpp3AXQF3N7d-23" value="cstar-u-rtp-activator-ca" style="shape=image;verticalLabelPosition=middle;labelBackgroundColor=default;verticalAlign=middle;aspect=fixed;imageAspect=0;editableCssRules=.*;image=data:image/svg+xml,PHN2ZyB4bWxucz0iaHR0cDovL3d3dy53My5vcmcvMjAwMC9zdmciIHZpZXdCb3g9Ii0wLjAwMDUzNjkwNjc2NTc3Mzg5MjQgMC4yNjc5OTgzMDc5NDMzNDQxIDE4LjAwMDU2NjQ4MjU0Mzk0NSAxNy40NjQwMDI2MDkyNTI5MyIgaGVpZ2h0PSIxNy40NjQwMDI2MDkyNTI5MyIgd2lkdGg9IjE4LjAwMDU2NjQ4MjU0Mzk0NSI+PGRlZnM+PGxpbmVhckdyYWRpZW50IGdyYWRpZW50VW5pdHM9InVzZXJTcGFjZU9uVXNlIiB5Mj0iOC43MDMiIHgyPSIxNC42ODMiIHkxPSI4LjcwMyIgeDE9IjguNzk4IiBpZD0iYjI3ZjFhZDAtN2QxMS00MjQ3LTlkYTMtOTFiY2U2MjExZjMyIj48c3RvcCBzdG9wLWNvbG9yPSIjNzczYWRjIiBvZmZzZXQ9IjAuMDAxIi8+PHN0b3Agc3RvcC1jb2xvcj0iIzU1MmY5OSIgb2Zmc2V0PSIxIi8+PC9saW5lYXJHcmFkaWVudD48bGluZWFyR3JhZGllbnQgZ3JhZGllbnRVbml0cz0idXNlclNwYWNlT25Vc2UiIHkyPSIxMy43OCIgeDI9IjUuNzY0IiB5MT0iMy43NzciIHgxPSI1Ljc2NCIgaWQ9ImIyZjkyMTEyLTRjYTktNGIxNy1hMDE5LWM5ZjI2YzFhNGE4ZiI+PHN0b3Agc3RvcC1jb2xvcj0iI2E2N2FmNCIgb2Zmc2V0PSIwIi8+PHN0b3Agc3RvcC1jb2xvcj0iIzc3M2FkYyIgb2Zmc2V0PSIwLjk5OSIvPjwvbGluZWFyR3JhZGllbnQ+PC9kZWZzPjxnIGlkPSJiOGEwNDg2YS01NTAxLTRkOTItYjU0MC1hNzY2YzRiM2I1NDgiPjxnPjxnPjxnPjxwYXRoIGZpbGw9IiMzMmJlZGQiIGQ9Ik0xNi45MzIsMTEuNTc4YTguNDQ4LDguNDQ4LDAsMCwxLTcuOTUsNS41OSw4LjE1LDguMTUsMCwwLDEtMi4zMy0uMzMsMi4xMzMsMi4xMzMsMCwwLDAsLjE4LS44M2MuMDEsMCwuMDMuMDEuMDQuMDFhNy40MjIsNy40MjIsMCwwLDAsMi4xMS4zLDcuNjQ2LDcuNjQ2LDAsMCwwLDYuODUtNC4yOGwuMDEtLjAxWiIvPjxwYXRoIGZpbGw9IiMzMmJlZGQiIGQ9Ik0zLjU4MiwxNC4wNjhhMi4wMjUsMi4wMjUsMCwwLDAtLjY0LjU2LDguNiw4LjYsMCwwLDEtMS42Ny0yLjQ0bDEuMDQuMjN2LjI2YS42LjYsMCwwLDAsLjQ3LjU5bC4xNC4wM2E2LjEzNiw2LjEzNiwwLDAsMCwuNjIuNzNaIi8+PHBhdGggZmlsbD0iIzMyYmVkZCIgZD0iTTEyLjM1Mi45NThhMi4yOCwyLjI4LDAsMCwwLS4yNy44MWMtLjAyLS4wMS0uMDUtLjAyLS4wNy0uMDNhNy40NzksNy40NzksMCwwLDAtMy4wMy0uNjMsNy42NDMsNy42NDMsMCwwLDAtNS45LDIuOGwtLjI5LjA2YS42LjYsMCwwLDAtLjQ4LjU4di40NmwtMS4wMi4xOUE4LjQ1NCw4LjQ1NCwwLDAsMSw4Ljk4Mi4yNjgsOC42LDguNiwwLDAsMSwxMi4zNTIuOTU4WiIvPjxwYXRoIGZpbGw9IiMzMmJlZGQiIGQ9Ik0xNi44NzIsNS43bC0xLjA5LS4zOGE2LjYsNi42LDAsMCwwLS43Mi0xLjE2Yy0uMDItLjAzLS4wNC0uMDUtLjA1LS4wN2EyLjA4MywyLjA4MywwLDAsMCwuNzItLjQ1QTcuODEsNy44MSwwLDAsMSwxNi44NzIsNS43WiIvPjxwYXRoIGZpbGw9IiNmZmYiIGQ9Ik0xMC4wNzIsMTEuOTA4bDIuNTQuNTZMOC42NzIsMTQuMWMtLjAyLDAtLjAzLjAxLS4wNS4wMWEuMTU0LjE1NCwwLDAsMS0uMTUtLjE1VjMuNDQ4YS4xNTQuMTU0LDAsMCwxLC4xNS0uMTUuMDkuMDksMCwwLDEsLjA1LjAxbDQuNDYsMS41Ni0zLjA1LjU3YS41NjUuNTY1LDAsMCwwLS40NC41NHY1LjRBLjUzNy41MzcsMCwwLDAsMTAuMDcyLDExLjkwOFoiLz48Zz48ZyBpZD0iZTkxOGYyODYtNTAzMi00OTQyLWFkMjktZWExN2U2ZjFjYzkwIj48cGF0aCBmaWxsPSIjYTY3YWY0IiBkPSJNMS4xLDUuNjY4bDEuMjEtLjIzdjYuNTVsLTEuMjMtLjI3LS45OS0uMjJhLjExMS4xMTEsMCwwLDEtLjA5LS4xMnYtNS40YS4xMi4xMiwwLDAsMSwuMDktLjEyWiIvPjwvZz48Zz48ZyBpZD0iYTQ3YTk5ZGQtNGQ0Ny00YzcwLThjNDItYzVhYzI3NGNlNDk2Ij48Zz48cGF0aCBmaWxsPSJ1cmwoI2IyN2YxYWQwLTdkMTEtNDI0Ny05ZGEzLTkxYmNlNjIxMWYzMikiIGQ9Ik0xMC4wNzIsMTEuOTA4bDIuNTQuNTZMOC42NzIsMTQuMWMtLjAyLDAtLjAzLjAxLS4wNS4wMWEuMTU0LjE1NCwwLDAsMS0uMTUtLjE1VjMuNDQ4YS4xNTQuMTU0LDAsMCwxLC4xNS0uMTUuMDkuMDksMCwwLDEsLjA1LjAxbDQuNDYsMS41Ni0zLjA1LjU3YS41NjUuNTY1LDAsMCwwLS40NC41NHY1LjRBLjUzNy41MzcsMCwwLDAsMTAuMDcyLDExLjkwOFoiLz48cGF0aCBmaWxsPSJ1cmwoI2IyZjkyMTEyLTRjYTktNGIxNy1hMDE5LWM5ZjI2YzFhNGE4ZikiIGQ9Ik04LjU4NiwzLjMsMi44NzgsNC4zNzhhLjE3Ny4xNzcsMCwwLDAtLjE0LjE3NVYxMi42OGEuMTc3LjE3NywwLDAsMCwuMTM3LjE3NEw4LjU4MSwxNC4xYS4xNzYuMTc2LDAsMCwwLC4yMS0uMTc0VjMuNDc4QS4xNzUuMTc1LDAsMCwwLDguNjE5LDMuM1oiLz48L2c+PC9nPjxwb2x5Z29uIG9wYWNpdHk9IjAuNSIgZmlsbD0iI2I3OTZmOSIgcG9pbnRzPSI1Ljk0OCA0LjkyMSA1Ljk0OCAxMi40ODMgNy45MzQgMTIuODE0IDcuOTM0IDQuNTY0IDUuOTQ4IDQuOTIxIi8+PHBvbHlnb24gb3BhY2l0eT0iMC41IiBmaWxsPSIjYjc5NmY5IiBwb2ludHM9IjMuNTA5IDUuMzI5IDMuNTA5IDExLjk1NCA1LjIzOCAxMi4zMTcgNS4yMzggNS4wMzEgMy41MDkgNS4zMjkiLz48L2c+PC9nPjwvZz48cGF0aCBmaWxsPSIjMzJiZWRkIiBkPSJNMTYsMi4wNDhhMS43NTUsMS43NTUsMCwxLDEtMS43Ni0xLjc2QTEuNzU2LDEuNzU2LDAsMCwxLDE2LDIuMDQ4WiIvPjxjaXJjbGUgZmlsbD0iIzMyYmVkZCIgcj0iMS43NTkiIGN5PSIxNS45NzMiIGN4PSI0LjY1Ii8+PC9nPjxwYXRoIGZpbGw9IiM3NzNhZGMiIGQ9Ik0xOCw2LjY4OXYzLjg0NGEuMjIyLjIyMiwwLDAsMS0uMTMzLjJsLS43NjYuMzE2LTMuMDcsMS4yNjgtLjAxMSwwYS4xMjYuMTI2LDAsMCwxLS4wMzgsMCwuMS4xLDAsMCwxLS4xLS4xVjUuMjM0YS4xLjEsMCwwLDEsLjA1NC0uMDg4bDAsMCwuMDE5LDBhLjAzMS4wMzEsMCwwLDEsLjAxOSwwLC4wNTUuMDU1LDAsMCwxLC4wMzQuMDA4bC4wMTEsMCwuMDEyLDBMMTcuMDUsNi4ybC44LjI4MkEuMjEzLjIxMywwLDAsMSwxOCw2LjY4OVoiLz48cGF0aCBmaWxsPSIjYTY3YWY0IiBkPSJNMTMuOTU5LDUuMTRsLTMuOC43MTVhLjExOC4xMTgsMCwwLDAtLjA5My4xMTd2NS40MDlhLjExOC4xMTgsMCwwLDAsLjA5MS4xMTZsMy44LjgzMWEuMTE1LjExNSwwLDAsMCwuMTM3LS4wOS4xMDkuMTA5LDAsMCwwLDAtLjAyNlY1LjI1NmEuMTE3LjExNywwLDAsMC0uMTE1LS4xMThBLjA4Mi4wODIsMCwwLDAsMTMuOTU5LDUuMTRaIi8+PC9nPjwvZz48L3N2Zz4=;labelPosition=right;align=left;spacingTop=12;" parent="1" vertex="1">
          <mxGeometry x="560" y="330" width="42.35" height="40" as="geometry" />
        </mxCell>
        <mxCell id="ioOOGiPEbpp3AXQF3N7d-31" value="" style="endArrow=open;html=1;rounded=0;exitX=1;exitY=0.25;exitDx=0;exitDy=0;entryX=0;entryY=0.25;entryDx=0;entryDy=0;fillColor=#d5e8d4;strokeColor=#82b366;endFill=0;jumpStyle=arc;flowAnimation=0;strokeWidth=2;" parent="1" source="ioOOGiPEbpp3AXQF3N7d-18" target="ioOOGiPEbpp3AXQF3N7d-23" edge="1">
          <mxGeometry width="50" height="50" relative="1" as="geometry">
            <mxPoint x="390" y="350" as="sourcePoint" />
            <mxPoint x="490" y="350" as="targetPoint" />
          </mxGeometry>
        </mxCell>
        <mxCell id="ioOOGiPEbpp3AXQF3N7d-32" value="" style="endArrow=none;dashed=1;html=1;dashPattern=1 2;strokeWidth=1;rounded=0;" parent="1" source="ioOOGiPEbpp3AXQF3N7d-23" target="ioOOGiPEbpp3AXQF3N7d-14" edge="1">
          <mxGeometry width="50" height="50" relative="1" as="geometry">
            <mxPoint x="732" y="360" as="sourcePoint" />
            <mxPoint x="1202" y="260" as="targetPoint" />
          </mxGeometry>
        </mxCell>
        <mxCell id="ioOOGiPEbpp3AXQF3N7d-33" value="CA&lt;div&gt;Server Cert.&lt;/div&gt;" style="shape=cylinder3;whiteSpace=wrap;html=1;boundedLbl=1;backgroundOutline=1;size=5.333333333333314;fillColor=#b1ddf0;strokeColor=#10739e;fontSize=12;" parent="1" vertex="1">
          <mxGeometry x="560" y="390" width="80" height="40" as="geometry" />
        </mxCell>
        <mxCell id="ioOOGiPEbpp3AXQF3N7d-34" value="" style="endArrow=none;dashed=1;html=1;dashPattern=1 2;strokeWidth=1;rounded=0;" parent="1" source="ioOOGiPEbpp3AXQF3N7d-23" target="ioOOGiPEbpp3AXQF3N7d-33" edge="1">
          <mxGeometry width="50" height="50" relative="1" as="geometry">
            <mxPoint x="716" y="360" as="sourcePoint" />
            <mxPoint x="370" y="451" as="targetPoint" />
          </mxGeometry>
        </mxCell>
        <mxCell id="ioOOGiPEbpp3AXQF3N7d-35" value="" style="endArrow=open;html=1;rounded=0;exitX=1;exitY=0.5;exitDx=0;exitDy=0;entryX=0;entryY=0.5;entryDx=0;entryDy=0;fillColor=#d5e8d4;strokeColor=#82b366;endFill=0;jumpStyle=arc;flowAnimation=0;strokeWidth=2;" parent="1" source="ioOOGiPEbpp3AXQF3N7d-23" target="ioOOGiPEbpp3AXQF3N7d-19" edge="1">
          <mxGeometry width="50" height="50" relative="1" as="geometry">
            <mxPoint x="493" y="360" as="sourcePoint" />
            <mxPoint x="570" y="360" as="targetPoint" />
          </mxGeometry>
        </mxCell>
        <mxCell id="ioOOGiPEbpp3AXQF3N7d-36" value="" style="endArrow=open;html=1;rounded=0;entryX=0;entryY=0.5;entryDx=0;entryDy=0;fillColor=#d5e8d4;strokeColor=#82b366;endFill=0;jumpStyle=arc;flowAnimation=0;edgeStyle=orthogonalEdgeStyle;strokeWidth=2;" parent="1" source="ioOOGiPEbpp3AXQF3N7d-44" target="ioOOGiPEbpp3AXQF3N7d-2" edge="1">
          <mxGeometry width="50" height="50" relative="1" as="geometry">
            <mxPoint x="370" y="360" as="sourcePoint" />
            <mxPoint x="450" y="360" as="targetPoint" />
          </mxGeometry>
        </mxCell>
        <mxCell id="ioOOGiPEbpp3AXQF3N7d-39" value="" style="endArrow=open;html=1;rounded=0;fillColor=#d5e8d4;strokeColor=#82b366;endFill=0;jumpStyle=arc;flowAnimation=0;entryX=0.5;entryY=0;entryDx=0;entryDy=0;edgeStyle=orthogonalEdgeStyle;exitX=1;exitY=0.5;exitDx=0;exitDy=0;strokeWidth=2;" parent="1" source="ioOOGiPEbpp3AXQF3N7d-19" target="ioOOGiPEbpp3AXQF3N7d-7" edge="1">
          <mxGeometry width="50" height="50" relative="1" as="geometry">
            <mxPoint x="980" y="320" as="sourcePoint" />
            <mxPoint x="1170" y="410" as="targetPoint" />
          </mxGeometry>
        </mxCell>
        <mxCell id="ioOOGiPEbpp3AXQF3N7d-42" value="" style="endArrow=open;html=1;rounded=0;entryX=0;entryY=0.75;entryDx=0;entryDy=0;fillColor=#f8cecc;strokeColor=#b85450;endFill=0;jumpStyle=arc;flowAnimation=0;exitX=1;exitY=0.5;exitDx=0;exitDy=0;edgeStyle=orthogonalEdgeStyle;strokeWidth=2;" parent="1" source="ioOOGiPEbpp3AXQF3N7d-3" target="ioOOGiPEbpp3AXQF3N7d-18" edge="1">
          <mxGeometry width="50" height="50" relative="1" as="geometry">
            <mxPoint x="90" y="390" as="sourcePoint" />
            <mxPoint x="190" y="400" as="targetPoint" />
          </mxGeometry>
        </mxCell>
        <mxCell id="ioOOGiPEbpp3AXQF3N7d-43" value="" style="endArrow=open;html=1;rounded=0;exitX=1;exitY=0.75;exitDx=0;exitDy=0;entryX=0;entryY=0.75;entryDx=0;entryDy=0;fillColor=#f8cecc;strokeColor=#b85450;endFill=0;jumpStyle=arc;flowAnimation=0;strokeWidth=2;" parent="1" source="ioOOGiPEbpp3AXQF3N7d-18" target="ioOOGiPEbpp3AXQF3N7d-23" edge="1">
          <mxGeometry width="50" height="50" relative="1" as="geometry">
            <mxPoint x="493" y="350" as="sourcePoint" />
            <mxPoint x="570" y="350" as="targetPoint" />
          </mxGeometry>
        </mxCell>
        <mxCell id="ioOOGiPEbpp3AXQF3N7d-44" value="Actor" style="shape=umlActor;verticalLabelPosition=bottom;verticalAlign=top;html=1;outlineConnect=0;" parent="1" vertex="1">
          <mxGeometry x="10" y="310" width="30" height="60" as="geometry" />
        </mxCell>
        <mxCell id="ioOOGiPEbpp3AXQF3N7d-45" value="" style="endArrow=none;dashed=1;html=1;dashPattern=1 2;strokeWidth=1;rounded=0;" parent="1" source="ioOOGiPEbpp3AXQF3N7d-19" target="ioOOGiPEbpp3AXQF3N7d-24" edge="1">
          <mxGeometry width="50" height="50" relative="1" as="geometry">
            <mxPoint x="612" y="373" as="sourcePoint" />
            <mxPoint x="670" y="408" as="targetPoint" />
          </mxGeometry>
        </mxCell>
      </root>
    </mxGraphModel>
  </diagram>
</mxfile>
